<?xml version="1.0" encoding="UTF-8" standalone="no" ?>
<!DOCTYPE svg PUBLIC "-//W3C//DTD SVG 1.1//EN" "http://www.w3.org/Graphics/SVG/1.1/DTD/svg11.dtd">
<svg xmlns="http://www.w3.org/2000/svg" xmlns:xlink="http://www.w3.org/1999/xlink" version="1.1" width="346" height="372" viewBox="0 0 346 372" xml:space="preserve">
<desc>Created with Fabric.js 4.6.0</desc>
<defs>
</defs>
<g transform="matrix(1.63 0 0 0.53 172.69 37.9)" id="Ptn2Q9zZBrTB-uSWADgfp"  >
<path style="stroke: rgb(71,70,191); stroke-width: 1; stroke-dasharray: none; stroke-linecap: butt; stroke-dashoffset: 0; stroke-linejoin: miter; stroke-miterlimit: 4; fill: rgb(222,235,238); fill-rule: nonzero; opacity: 1;" vector-effect="non-scaling-stroke"  transform=" translate(0, 0)" d="M -60.78212 -60.78212 L 60.78213 -60.78212 L 60.78213 60.78213 L -60.78212 60.78213 z" stroke-linecap="round" />
</g>
<g transform="matrix(1 0 0 1 172.69 43.62)" style="" id="3h7HTM0ox4vxf71exENG1"  >
		<text xml:space="preserve" font-family="Open Sans" font-size="19" font-style="normal" font-weight="700" letter-spacing="0.038" line-height="1" style="stroke: none; stroke-width: 1; stroke-dasharray: none; stroke-linecap: butt; stroke-dashoffset: 0; stroke-linejoin: miter; stroke-miterlimit: 4; fill: rgb(0,0,0); fill-rule: nonzero; opacity: 1; white-space: pre;" ><tspan x="-6.55" y="2.72" >A</tspan></text>
</g>
<g transform="matrix(1.63 0 0 0.53 172.76 332.84)" id="p1zXhXIbBugSBdZhltkaK"  >
<path style="stroke: rgb(71,70,191); stroke-width: 1; stroke-dasharray: none; stroke-linecap: butt; stroke-dashoffset: 0; stroke-linejoin: miter; stroke-miterlimit: 4; fill: rgb(222,235,238); fill-rule: nonzero; opacity: 1;" vector-effect="non-scaling-stroke"  transform=" translate(0, 0)" d="M -60.78212 -60.78212 L 60.78213 -60.78212 L 60.78213 60.78213 L -60.78212 60.78213 z" stroke-linecap="round" />
</g>
<g transform="matrix(1 0 0 1 172.76 338.56)" style="" id="F0ahABEwkhtpa_3PrJW7Z"  >
		<text xml:space="preserve" font-family="Open Sans" font-size="19" font-style="normal" font-weight="700" letter-spacing="0.038" line-height="1" style="stroke: none; stroke-width: 1; stroke-dasharray: none; stroke-linecap: butt; stroke-dashoffset: 0; stroke-linejoin: miter; stroke-miterlimit: 4; fill: rgb(0,0,0); fill-rule: nonzero; opacity: 1; white-space: pre;" ><tspan x="-7.03" y="2.71" >D</tspan></text>
</g>
<g transform="matrix(1.25 0 0 0.53 81.73 181.62)" id="GkUGAaqdB7Pj1uOwDMF9z"  >
<path style="stroke: rgb(71,70,191); stroke-width: 1; stroke-dasharray: none; stroke-linecap: butt; stroke-dashoffset: 0; stroke-linejoin: miter; stroke-miterlimit: 4; fill: rgb(222,235,238); fill-rule: nonzero; opacity: 1;" vector-effect="non-scaling-stroke"  transform=" translate(0, 0)" d="M -60.78212 -60.78212 L 60.78213 -60.78212 L 60.78213 60.78213 L -60.78212 60.78213 z" stroke-linecap="round" />
</g>
<g transform="matrix(1 0 0 1 81.73 190.2)" style="" id="zSH-q41Xm1C87F05vHBcE"  >
		<text xml:space="preserve" font-family="Open Sans" font-size="19" font-style="normal" font-weight="700" letter-spacing="0.038" line-height="1" style="stroke: none; stroke-width: 1; stroke-dasharray: none; stroke-linecap: butt; stroke-dashoffset: 0; stroke-linejoin: miter; stroke-miterlimit: 4; fill: rgb(0,0,0); fill-rule: nonzero; opacity: 1; white-space: pre;" ><tspan x="-6.38" y="2.71" >B</tspan></text>
</g>
<g transform="matrix(1.25 0 0 0.53 263.66 181.62)" id="FQSLIc8kGc1dO7CsTYBTR"  >
<path style="stroke: rgb(71,70,191); stroke-width: 1; stroke-dasharray: none; stroke-linecap: butt; stroke-dashoffset: 0; stroke-linejoin: miter; stroke-miterlimit: 4; fill: rgb(222,235,238); fill-rule: nonzero; opacity: 1;" vector-effect="non-scaling-stroke"  transform=" translate(0, 0)" d="M -60.78212 -60.78212 L 60.78213 -60.78212 L 60.78213 60.78213 L -60.78212 60.78213 z" stroke-linecap="round" />
</g>
<g transform="matrix(1 0 0 1 263.66 190.2)" style="" id="ZOi-HXaPBhvO7AudQ4b6F"  >
		<text xml:space="preserve" font-family="Open Sans" font-size="19" font-style="normal" font-weight="700" letter-spacing="0.038" line-height="1" style="stroke: none; stroke-width: 1; stroke-dasharray: none; stroke-linecap: butt; stroke-dashoffset: 0; stroke-linejoin: miter; stroke-miterlimit: 4; fill: rgb(0,0,0); fill-rule: nonzero; opacity: 1; white-space: pre;" ><tspan x="-6.05" y="2.71" >C</tspan></text>
</g>
<g transform="matrix(0 0.77 -0.25 0 104.57 108.23)" id="nBpHBFLGOwwFIKiG7NjLr"  >
<path style="stroke: none; stroke-width: 1; stroke-dasharray: none; stroke-linecap: butt; stroke-dashoffset: 0; stroke-linejoin: miter; stroke-miterlimit: 4; fill: rgb(35,0,131); fill-rule: nonzero; opacity: 1;" vector-effect="non-scaling-stroke"  transform=" translate(-40, -40)" d="M 41.17 72.5 L 80 40 L 41.17 7.5 L 41.17 28.105 L 0 28.105 L 0 51.952 L 41.17 51.952 L 41.17 72.5 z" stroke-linecap="round" />
</g>
<g transform="matrix(0 0.77 -0.25 0 240.8 108.28)" id="kLwo4XZ99l6I6fJGKEgk4"  >
<path style="stroke: none; stroke-width: 1; stroke-dasharray: none; stroke-linecap: butt; stroke-dashoffset: 0; stroke-linejoin: miter; stroke-miterlimit: 4; fill: rgb(35,0,131); fill-rule: nonzero; opacity: 1;" vector-effect="non-scaling-stroke"  transform=" translate(-40, -40)" d="M 41.17 72.5 L 80 40 L 41.17 7.5 L 41.17 28.105 L 0 28.105 L 0 51.952 L 41.17 51.952 L 41.17 72.5 z" stroke-linecap="round" />
</g>
<g transform="matrix(0 0.77 -0.25 0 104.3 261.85)" id="WPUxKk05c6ZEmaA_rJLGx"  >
<path style="stroke: none; stroke-width: 1; stroke-dasharray: none; stroke-linecap: butt; stroke-dashoffset: 0; stroke-linejoin: miter; stroke-miterlimit: 4; fill: rgb(35,0,131); fill-rule: nonzero; opacity: 1;" vector-effect="non-scaling-stroke"  transform=" translate(-40, -40)" d="M 41.17 72.5 L 80 40 L 41.17 7.5 L 41.17 28.105 L 0 28.105 L 0 51.952 L 41.17 51.952 L 41.17 72.5 z" stroke-linecap="round" />
</g>
<g transform="matrix(0 0.77 -0.25 0 240.54 261.9)" id="RPBwmMZgfovac_tmAuSbq"  >
<path style="stroke: none; stroke-width: 1; stroke-dasharray: none; stroke-linecap: butt; stroke-dashoffset: 0; stroke-linejoin: miter; stroke-miterlimit: 4; fill: rgb(35,0,131); fill-rule: nonzero; opacity: 1;" vector-effect="non-scaling-stroke"  transform=" translate(-40, -40)" d="M 41.17 72.5 L 80 40 L 41.17 7.5 L 41.17 28.105 L 0 28.105 L 0 51.952 L 41.17 51.952 L 41.17 72.5 z" stroke-linecap="round" />
</g>
</svg>