<?xml version="1.0" encoding="UTF-8" standalone="no" ?>
<!DOCTYPE svg PUBLIC "-//W3C//DTD SVG 1.1//EN" "http://www.w3.org/Graphics/SVG/1.1/DTD/svg11.dtd">
<svg xmlns="http://www.w3.org/2000/svg" xmlns:xlink="http://www.w3.org/1999/xlink" version="1.1" width="340" height="235" viewBox="0 0 340 235" xml:space="preserve">
<desc>Created with Fabric.js 4.6.0</desc>
<defs>
</defs>
<g transform="matrix(1.17 0 0 0.53 77.22 38.67)" id="Ptn2Q9zZBrTB-uSWADgfp"  >
<path style="stroke: rgb(71,70,191); stroke-width: 1; stroke-dasharray: none; stroke-linecap: butt; stroke-dashoffset: 0; stroke-linejoin: miter; stroke-miterlimit: 4; fill: rgb(222,235,238); fill-rule: nonzero; opacity: 1;" vector-effect="non-scaling-stroke"  transform=" translate(0, 0)" d="M -60.78212 -60.78212 L 60.78213 -60.78212 L 60.78213 60.78213 L -60.78212 60.78213 z" stroke-linecap="round" />
</g>
<g transform="matrix(1 0 0 1 76.25 38.67)" style="" id="3h7HTM0ox4vxf71exENG1"  >
		<text xml:space="preserve" font-family="Open Sans" font-size="19" font-style="normal" font-weight="700" letter-spacing="0.038" line-height="1" style="stroke: none; stroke-width: 1; stroke-dasharray: none; stroke-linecap: butt; stroke-dashoffset: 0; stroke-linejoin: miter; stroke-miterlimit: 4; fill: rgb(0,0,0); fill-rule: nonzero; opacity: 1; white-space: pre;" ><tspan x="-6.55" y="2.72" >A</tspan></text>
</g>
<g transform="matrix(1.17 0 0 0.53 261.13 38.7)" id="iO-XUj5dCNzQ_D_4ArC31"  >
<path style="stroke: rgb(71,70,191); stroke-width: 1; stroke-dasharray: none; stroke-linecap: butt; stroke-dashoffset: 0; stroke-linejoin: miter; stroke-miterlimit: 4; fill: rgb(222,235,238); fill-rule: nonzero; opacity: 1;" vector-effect="non-scaling-stroke"  transform=" translate(0, 0)" d="M -60.78212 -60.78212 L 60.78213 -60.78212 L 60.78213 60.78213 L -60.78212 60.78213 z" stroke-linecap="round" />
</g>
<g transform="matrix(1 0 0 1 260.16 38.7)" style="" id="n9vNpmUpIVKl5rs4JVxeH"  >
		<text xml:space="preserve" font-family="Open Sans" font-size="19" font-style="normal" font-weight="700" letter-spacing="0.038" line-height="1" style="stroke: none; stroke-width: 1; stroke-dasharray: none; stroke-linecap: butt; stroke-dashoffset: 0; stroke-linejoin: miter; stroke-miterlimit: 4; fill: rgb(0,0,0); fill-rule: nonzero; opacity: 1; white-space: pre;" ><tspan x="-6.38" y="2.71" >B</tspan></text>
</g>
<g transform="matrix(1.63 0 0 0.53 169.13 193.72)" id="p1zXhXIbBugSBdZhltkaK"  >
<path style="stroke: rgb(71,70,191); stroke-width: 1; stroke-dasharray: none; stroke-linecap: butt; stroke-dashoffset: 0; stroke-linejoin: miter; stroke-miterlimit: 4; fill: rgb(222,235,238); fill-rule: nonzero; opacity: 1;" vector-effect="non-scaling-stroke"  transform=" translate(0, 0)" d="M -60.78212 -60.78212 L 60.78213 -60.78212 L 60.78213 60.78213 L -60.78212 60.78213 z" stroke-linecap="round" />
</g>
<g transform="matrix(1 0 0 1 169.13 199.44)" style="" id="F0ahABEwkhtpa_3PrJW7Z"  >
		<text xml:space="preserve" font-family="Open Sans" font-size="19" font-style="normal" font-weight="700" letter-spacing="0.038" line-height="1" style="stroke: none; stroke-width: 1; stroke-dasharray: none; stroke-linecap: butt; stroke-dashoffset: 0; stroke-linejoin: miter; stroke-miterlimit: 4; fill: rgb(0,0,0); fill-rule: nonzero; opacity: 1; white-space: pre;" ><tspan x="-6.05" y="2.71" >C</tspan></text>
</g>
<g transform="matrix(0 0.77 -0.25 0 93.64 115.76)" id="nBpHBFLGOwwFIKiG7NjLr"  >
<path style="stroke: none; stroke-width: 1; stroke-dasharray: none; stroke-linecap: butt; stroke-dashoffset: 0; stroke-linejoin: miter; stroke-miterlimit: 4; fill: rgb(35,0,131); fill-rule: nonzero; opacity: 1;" vector-effect="non-scaling-stroke"  transform=" translate(0, 0)" d="M 1.17 32.5 L 40 0 L 1.1700000000000017 -32.5 L 1.1700000000000017 -11.895 L -40 -11.895 L -40 11.952000000000002 L 1.1700000000000017 11.952000000000002 z" stroke-linecap="round" />
</g>
<g transform="matrix(0 0.77 -0.25 0 244.62 115.76)" id="S_KECBzSwPZ6RVUSXc-Zj"  >
<path style="stroke: none; stroke-width: 1; stroke-dasharray: none; stroke-linecap: butt; stroke-dashoffset: 0; stroke-linejoin: miter; stroke-miterlimit: 4; fill: rgb(35,0,131); fill-rule: nonzero; opacity: 1;" vector-effect="non-scaling-stroke"  transform=" translate(0, 0)" d="M 1.17 32.5 L 40 0 L 1.1700000000000017 -32.5 L 1.1700000000000017 -11.895 L -40 -11.895 L -40 11.952000000000002 L 1.1700000000000017 11.952000000000002 z" stroke-linecap="round" />
</g>
</svg>