<?xml version="1.0" encoding="UTF-8" standalone="no" ?>
<!DOCTYPE svg PUBLIC "-//W3C//DTD SVG 1.1//EN" "http://www.w3.org/Graphics/SVG/1.1/DTD/svg11.dtd">
<svg xmlns="http://www.w3.org/2000/svg" xmlns:xlink="http://www.w3.org/1999/xlink" version="1.1" width="566" height="193" viewBox="0 0 566 193" xml:space="preserve">
<desc>Created with Fabric.js 3.6.3</desc>
<defs>
</defs>
<g transform="matrix(0.98 0 0 0.98 291.11 97.65)"  >
<g style=""   >
		<g transform="matrix(1 0 0 1 -250 -71.3)" style=""  >
		<text xml:space="preserve" font-family="'Open Sans', sans-serif" font-size="18" font-style="normal" font-weight="normal" style="stroke: none; stroke-width: 1; stroke-dasharray: none; stroke-linecap: butt; stroke-dashoffset: 0; stroke-linejoin: miter; stroke-miterlimit: 4; fill: rgb(0,0,0); fill-rule: nonzero; opacity: 1; white-space: pre;" ><tspan x="-40" y="-6.14" >i = 0</tspan><tspan x="-40" y="17.45" >first pass</tspan></text>
</g>
		<g transform="matrix(1.41 0 0 1.41 -82.99 -74.73)" style=""  >
		<text xml:space="preserve" font-family="'Open Sans', sans-serif" font-size="18" font-style="normal" font-weight="bold" style="stroke: none; stroke-width: 1; stroke-dasharray: none; stroke-linecap: butt; stroke-dashoffset: 0; stroke-linejoin: miter; stroke-miterlimit: 4; fill: rgb(0,0,0); fill-rule: nonzero; opacity: 1; white-space: pre;" ><tspan x="-72.26" y="5.65" style="white-space: pre; ">1 ,  2 ,  3 ,  4 ,  5</tspan></text>
</g>
		<g transform="matrix(1 0 0 1 -67 -45.09)" style=""  >
		<text xml:space="preserve" font-family="'Open Sans', sans-serif" font-size="18" font-style="normal" font-weight="bold" style="stroke: none; stroke-width: 1; stroke-dasharray: none; stroke-linecap: butt; stroke-dashoffset: 0; stroke-linejoin: miter; stroke-miterlimit: 4; fill: rgb(0,0,0); fill-rule: nonzero; opacity: 1; white-space: pre;" ><tspan x="-77.99" y="5.65" style="white-space: pre; "> j       j         j       j</tspan></text>
</g>
		<g transform="matrix(1 0 0 1 -149.33 -36.1)"  >
<line style="stroke: rgb(0,0,0); stroke-width: 2; stroke-dasharray: none; stroke-linecap: butt; stroke-dashoffset: 0; stroke-linejoin: miter; stroke-miterlimit: 4; fill: rgb(0,0,0); fill-rule: nonzero; opacity: 1;" vector-effect="non-scaling-stroke"  x1="0" y1="0" x2="0" y2="0" />
</g>
		<g transform="matrix(1 0 0 1 -138.67 -42.6)"  >
<path style="stroke: rgb(255,0,0); stroke-width: 2; stroke-dasharray: none; stroke-linecap: butt; stroke-dashoffset: 0; stroke-linejoin: miter; stroke-miterlimit: 4; fill: rgb(254,0,0); fill-rule: nonzero; opacity: 1;" vector-effect="non-scaling-stroke"  transform=" translate(-192.33, -138.17)" d="M 181 148.33333333333331 L 203.66666666666666 128" stroke-linecap="round" />
</g>
		<g transform="matrix(1 0 0 1 -99.83 -43.43)"  >
<path style="stroke: rgb(255,0,0); stroke-width: 2; stroke-dasharray: none; stroke-linecap: butt; stroke-dashoffset: 0; stroke-linejoin: miter; stroke-miterlimit: 4; fill: none; fill-rule: nonzero; opacity: 1;" vector-effect="non-scaling-stroke"  transform=" translate(-231.17, -137.33)" d="M 219.66666666666666 146.33333333333331 L 242.66666666666666 128.33333333333331" stroke-linecap="round" />
</g>
		<g transform="matrix(1 0 0 1 -51.83 -44.26)"  >
<path style="stroke: rgb(255,0,0); stroke-width: 2; stroke-dasharray: none; stroke-linecap: butt; stroke-dashoffset: 0; stroke-linejoin: miter; stroke-miterlimit: 4; fill: none; fill-rule: nonzero; opacity: 1;" vector-effect="non-scaling-stroke"  transform=" translate(-279.17, -136.5)" d="M 265.3333333333333 145.33333333333331 L 293 127.66666666666666" stroke-linecap="round" />
</g>
		<g transform="matrix(1 0 0 1 -11.67 -46.26)"  >
<path style="stroke: rgb(255,0,0); stroke-width: 2; stroke-dasharray: none; stroke-linecap: butt; stroke-dashoffset: 0; stroke-linejoin: miter; stroke-miterlimit: 4; fill: none; fill-rule: nonzero; opacity: 1;" vector-effect="non-scaling-stroke"  transform=" translate(-319.33, -134.5)" d="M 304 145 L 334.66666666666663 124" stroke-linecap="round" />
</g>
		<g transform="matrix(0.32 0 0 0.32 37.93 -73.3)"  >
<path style="stroke: rgb(0,0,0); stroke-width: 2; stroke-dasharray: none; stroke-linecap: butt; stroke-dashoffset: 0; stroke-linejoin: miter; stroke-miterlimit: 10; fill: none; fill-rule: evenodd; opacity: 1;" vector-effect="non-scaling-stroke"  transform=" translate(-59.83, -29.92)" d="m 0 14.960629 l 89.732285 0 l 0 -14.960629 l 29.921257 29.921259 l -29.921257 29.921259 l 0 -14.9606285 l -89.732285 0 z" stroke-linecap="round" />
</g>
		<g transform="matrix(1 0 0 1 186.5 -63.5)" style=""  >
		<text xml:space="preserve" font-family="'Open Sans', sans-serif" font-size="18" font-style="normal" font-weight="normal" style="stroke: none; stroke-width: 1; stroke-dasharray: none; stroke-linecap: butt; stroke-dashoffset: 0; stroke-linejoin: miter; stroke-miterlimit: 4; fill: rgb(0,0,0); fill-rule: nonzero; opacity: 1; white-space: pre;" ><tspan x="-103.5" y="-17.94" >only once it ran</tspan><tspan x="-103.5" y="5.65" >we don&apos;t need to check</tspan><tspan x="-103.5" y="29.25" >it again</tspan></text>
</g>
		<g transform="matrix(-0.33 0.6 -0.28 -0.16 -203.27 -11.93)"  >
<path style="stroke: rgb(0,0,0); stroke-width: 2; stroke-dasharray: none; stroke-linecap: butt; stroke-dashoffset: 0; stroke-linejoin: miter; stroke-miterlimit: 10; fill: none; fill-rule: evenodd; opacity: 1;" vector-effect="non-scaling-stroke"  transform=" translate(-59.83, -29.92)" d="m 0 14.960629 l 89.732285 0 l 0 -14.960629 l 29.921257 29.921259 l -29.921257 29.921259 l 0 -14.9606285 l -89.732285 0 z" stroke-linecap="round" />
</g>
		<g transform="matrix(1 0 0 1 -18 63.5)" style=""  >
		<text xml:space="preserve" font-family="'Open Sans', sans-serif" font-size="18" font-style="normal" font-weight="normal" style="stroke: none; stroke-width: 1; stroke-dasharray: none; stroke-linecap: butt; stroke-dashoffset: 0; stroke-linejoin: miter; stroke-miterlimit: 4; fill: rgb(0,0,0); fill-rule: nonzero; opacity: 1; white-space: pre;" ><tspan x="-237" y="-17.94" >Note : When j never swaps for value of i, it means array</tspan><tspan x="-237" y="5.65" >is sorted</tspan><tspan x="-237" y="29.25" >Hence, you can end the program</tspan></text>
</g>
</g>
</g>
</svg>