<?xml version="1.0" encoding="UTF-8" standalone="no" ?>
<!DOCTYPE svg PUBLIC "-//W3C//DTD SVG 1.1//EN" "http://www.w3.org/Graphics/SVG/1.1/DTD/svg11.dtd">
<svg xmlns="http://www.w3.org/2000/svg" xmlns:xlink="http://www.w3.org/1999/xlink" version="1.1" width="526" height="418" viewBox="0 0 526 418" xml:space="preserve">
<desc>Created with Fabric.js 3.6.3</desc>
<defs>
</defs>
<g transform="matrix(1 0 0 1 284.22 201)"  >
<g style=""   >
		<g transform="matrix(1.02 0 0 1.02 -205.04 -157.89)" style=""  >
		<text xml:space="preserve" font-family="'Open Sans', sans-serif" font-size="18" font-style="normal" font-weight="normal" style="stroke: none; stroke-width: 1; stroke-dasharray: none; stroke-linecap: butt; stroke-dashoffset: 0; stroke-linejoin: miter; stroke-miterlimit: 4; fill: rgb(0,0,0); fill-rule: nonzero; opacity: 1; white-space: pre;" ><tspan x="-74.5" y="5.65" style="white-space: pre; ">3rd pass ---  i = 2</tspan></text>
</g>
		<g transform="matrix(1.65 0 0 1.65 -49.11 -123.67)" style=""  >
		<text xml:space="preserve" font-family="'Open Sans', sans-serif" font-size="18" font-style="normal" font-weight="bold" style="stroke: none; stroke-width: 1; stroke-dasharray: none; stroke-linecap: butt; stroke-dashoffset: 0; stroke-linejoin: miter; stroke-miterlimit: 4; fill: rgb(0,0,0); fill-rule: nonzero; opacity: 1; white-space: pre;" ><tspan x="-68.01" y="5.65" style="white-space: pre; ">3 ,  4 ,  5 ,  1 ,  2</tspan></text>
</g>
		<g transform="matrix(2.03 0 0 0.35 -76.2 -125.46)"  >
<polygon style="stroke: rgb(0,0,0); stroke-width: 2; stroke-dasharray: none; stroke-linecap: butt; stroke-dashoffset: 0; stroke-linejoin: miter; stroke-miterlimit: 4; fill: none; fill-rule: nonzero; opacity: 1;" vector-effect="non-scaling-stroke"  points="-50,-50 -50,50 50,50 50,-50 " />
</g>
		<g transform="matrix(0.81 0 0 1.02 11.19 -183.71)"  >
<path style="stroke: rgb(0,0,0); stroke-width: 2; stroke-dasharray: none; stroke-linecap: butt; stroke-dashoffset: 0; stroke-linejoin: miter; stroke-miterlimit: 4; fill: none; fill-rule: nonzero; opacity: 1;" vector-effect="non-scaling-stroke"  transform=" translate(-328, -48.22)" d="M 244 82 Q 319 -4 412 60" stroke-linecap="round" />
</g>
		<g transform="matrix(1.02 0 0 1.02 188.79 -171.08)" style=""  >
		<text xml:space="preserve" font-family="'Open Sans', sans-serif" font-size="18" font-style="normal" font-weight="normal" style="stroke: none; stroke-width: 1; stroke-dasharray: none; stroke-linecap: butt; stroke-dashoffset: 0; stroke-linejoin: miter; stroke-miterlimit: 4; fill: rgb(0,0,0); fill-rule: nonzero; opacity: 1; white-space: pre;" ><tspan x="-94.5" y="5.65" >this will be sorted</tspan></text>
</g>
		<g transform="matrix(0 0.4 -0.4 0 -52.76 -76.82)"  >
<path style="stroke: rgb(0,0,0); stroke-width: 2; stroke-dasharray: none; stroke-linecap: butt; stroke-dashoffset: 0; stroke-linejoin: miter; stroke-miterlimit: 10; fill: none; fill-rule: evenodd; opacity: 1;" vector-effect="non-scaling-stroke"  transform=" translate(-59.83, -29.92)" d="m 0 14.960629 l 89.732285 0 l 0 -14.960629 l 29.921257 29.921259 l -29.921257 29.921259 l 0 -14.9606285 l -89.732285 0 z" stroke-linecap="round" />
</g>
		<g transform="matrix(1.65 0 0 1.65 -49.38 -23.49)" style=""  >
		<text xml:space="preserve" font-family="'Open Sans', sans-serif" font-size="18" font-style="normal" font-weight="bold" style="stroke: none; stroke-width: 1; stroke-dasharray: none; stroke-linecap: butt; stroke-dashoffset: 0; stroke-linejoin: miter; stroke-miterlimit: 4; fill: rgb(0,0,0); fill-rule: nonzero; opacity: 1; white-space: pre;" ><tspan x="-68.01" y="5.65" style="white-space: pre; ">1 ,  3 ,  4 ,  5 ,  2</tspan></text>
</g>
		<g transform="matrix(1.02 0 0 1.02 -209.09 55.27)" style=""  >
		<text xml:space="preserve" font-family="'Open Sans', sans-serif" font-size="18" font-style="normal" font-weight="normal" style="stroke: none; stroke-width: 1; stroke-dasharray: none; stroke-linecap: butt; stroke-dashoffset: 0; stroke-linejoin: miter; stroke-miterlimit: 4; fill: rgb(0,0,0); fill-rule: nonzero; opacity: 1; white-space: pre;" ><tspan x="-74.5" y="5.65" style="white-space: pre; ">4th pass ---  i = 3</tspan></text>
</g>
		<g transform="matrix(1.65 0 0 1.65 -53.44 89.18)" style=""  >
		<text xml:space="preserve" font-family="'Open Sans', sans-serif" font-size="18" font-style="normal" font-weight="bold" style="stroke: none; stroke-width: 1; stroke-dasharray: none; stroke-linecap: butt; stroke-dashoffset: 0; stroke-linejoin: miter; stroke-miterlimit: 4; fill: rgb(0,0,0); fill-rule: nonzero; opacity: 1; white-space: pre;" ><tspan x="-68.01" y="5.65" style="white-space: pre; ">1 ,  3 ,  4 ,  5 ,  2</tspan></text>
</g>
		<g transform="matrix(2.3 0 0 0.36 -66.72 87.82)"  >
<polygon style="stroke: rgb(0,0,0); stroke-width: 2; stroke-dasharray: none; stroke-linecap: butt; stroke-dashoffset: 0; stroke-linejoin: miter; stroke-miterlimit: 4; fill: none; fill-rule: nonzero; opacity: 1;" vector-effect="non-scaling-stroke"  points="-50,-50 -50,50 50,50 50,-50 " />
</g>
		<g transform="matrix(0.8 0 0 1.02 7.66 29.44)"  >
<path style="stroke: rgb(0,0,0); stroke-width: 2; stroke-dasharray: none; stroke-linecap: butt; stroke-dashoffset: 0; stroke-linejoin: miter; stroke-miterlimit: 4; fill: none; fill-rule: nonzero; opacity: 1;" vector-effect="non-scaling-stroke"  transform=" translate(-328, -48.22)" d="M 244 82 Q 319 -4 412 60" stroke-linecap="round" />
</g>
		<g transform="matrix(1.02 0 0 1.02 184.73 42.07)" style=""  >
		<text xml:space="preserve" font-family="'Open Sans', sans-serif" font-size="18" font-style="normal" font-weight="normal" style="stroke: none; stroke-width: 1; stroke-dasharray: none; stroke-linecap: butt; stroke-dashoffset: 0; stroke-linejoin: miter; stroke-miterlimit: 4; fill: rgb(0,0,0); fill-rule: nonzero; opacity: 1; white-space: pre;" ><tspan x="-94.5" y="5.65" >this will be sorted</tspan></text>
</g>
		<g transform="matrix(0 0.41 -0.41 0 -56.94 136.56)"  >
<path style="stroke: rgb(0,0,0); stroke-width: 2; stroke-dasharray: none; stroke-linecap: butt; stroke-dashoffset: 0; stroke-linejoin: miter; stroke-miterlimit: 10; fill: none; fill-rule: evenodd; opacity: 1;" vector-effect="non-scaling-stroke"  transform=" translate(-59.83, -29.92)" d="m 0 14.960629 l 89.732285 0 l 0 -14.960629 l 29.921257 29.921259 l -29.921257 29.921259 l 0 -14.9606285 l -89.732285 0 z" stroke-linecap="round" />
</g>
		<g transform="matrix(1.65 0 0 1.65 -53.44 189.67)" style=""  >
		<text xml:space="preserve" font-family="'Open Sans', sans-serif" font-size="18" font-style="normal" font-weight="bold" style="stroke: none; stroke-width: 1; stroke-dasharray: none; stroke-linecap: butt; stroke-dashoffset: 0; stroke-linejoin: miter; stroke-miterlimit: 4; fill: rgb(0,0,0); fill-rule: nonzero; opacity: 1; white-space: pre;" ><tspan x="-68.01" y="5.65" style="white-space: pre; ">1 ,  2 ,  3 ,  4 ,  5</tspan></text>
</g>
		<g transform="matrix(2.3 0 0 0.36 -55.19 190.56)"  >
<polygon style="stroke: rgb(51,132,0); stroke-width: 3; stroke-dasharray: none; stroke-linecap: butt; stroke-dashoffset: 0; stroke-linejoin: miter; stroke-miterlimit: 4; fill: none; fill-rule: nonzero; opacity: 1;" vector-effect="non-scaling-stroke"  points="-50,-50 -50,50 50,50 50,-50 " />
</g>
		<g transform="matrix(1.02 0 0 1.02 176.2 208.13)" style=""  >
		<text xml:space="preserve" font-family="'Open Sans', sans-serif" font-size="18" font-style="normal" font-weight="normal" style="stroke: none; stroke-width: 1; stroke-dasharray: none; stroke-linecap: butt; stroke-dashoffset: 0; stroke-linejoin: miter; stroke-miterlimit: 4; fill: rgb(0,0,0); fill-rule: nonzero; opacity: 1; white-space: pre;" ><tspan x="-94.5" y="5.65" >array is sorted !!</tspan></text>
</g>
</g>
</g>
</svg>