<?xml version="1.0" encoding="UTF-8" standalone="no" ?>
<!DOCTYPE svg PUBLIC "-//W3C//DTD SVG 1.1//EN" "http://www.w3.org/Graphics/SVG/1.1/DTD/svg11.dtd">
<svg xmlns="http://www.w3.org/2000/svg" xmlns:xlink="http://www.w3.org/1999/xlink" version="1.1" width="539" height="460" viewBox="0 0 539 460" xml:space="preserve">
<desc>Created with Fabric.js 3.6.3</desc>
<defs>
</defs>
<g transform="matrix(1.05 0 0 1.05 279.25 229.17)"  >
<g style=""   >
		<g transform="matrix(0.91 0 0 0.91 -225.94 -210.44)" style=""  >
		<text xml:space="preserve" font-family="'Open Sans', sans-serif" font-size="18" font-style="normal" font-weight="normal" style="stroke: none; stroke-width: 1; stroke-dasharray: none; stroke-linecap: butt; stroke-dashoffset: 0; stroke-linejoin: miter; stroke-miterlimit: 4; fill: rgb(0,0,0); fill-rule: nonzero; opacity: 1; white-space: pre;" ><tspan x="-45.49" y="5.65" >Example :</tspan></text>
</g>
		<g transform="matrix(1.28 0 0 1.28 -53.76 -149.45)" style=""  >
		<text xml:space="preserve" font-family="'Open Sans', sans-serif" font-size="18" font-style="normal" font-weight="normal" style="stroke: none; stroke-width: 1; stroke-dasharray: none; stroke-linecap: butt; stroke-dashoffset: 0; stroke-linejoin: miter; stroke-miterlimit: 4; fill: rgb(0,0,0); fill-rule: nonzero; opacity: 1; white-space: pre;" ><tspan x="-68.49" y="5.65" style="white-space: pre; ">4 ,  5 ,  1 ,  2 ,  3</tspan></text>
</g>
		<g transform="matrix(0.54 0 0 0.54 -55.11 -128.88)" style=""  >
		<text xml:space="preserve" font-family="'Open Sans', sans-serif" font-size="18" font-style="normal" font-weight="normal" style="stroke: none; stroke-width: 1; stroke-dasharray: none; stroke-linecap: butt; stroke-dashoffset: 0; stroke-linejoin: miter; stroke-miterlimit: 4; fill: rgb(0,0,0); fill-rule: nonzero; opacity: 1; white-space: pre;" ><tspan x="-155.94" y="5.65" style="white-space: pre; ">0             1              2          3              4</tspan></text>
</g>
		<g transform="matrix(0.77 0 0 0.77 -43.55 -193.82)"  >
<path style="stroke: rgb(0,0,0); stroke-width: 2; stroke-dasharray: none; stroke-linecap: butt; stroke-dashoffset: 0; stroke-linejoin: miter; stroke-miterlimit: 4; fill: none; fill-rule: nonzero; opacity: 1;" vector-effect="non-scaling-stroke"  transform=" translate(-302.5, -42.18)" d="M 230.5 66 Q 313.5 -5 374.5 71" stroke-linecap="round" />
</g>
		<g transform="matrix(0.38 0 0 0.38 -98.16 -152.61)"  >
<circle style="stroke: rgb(166,94,0); stroke-width: 2; stroke-dasharray: none; stroke-linecap: butt; stroke-dashoffset: 0; stroke-linejoin: miter; stroke-miterlimit: 4; fill: none; fill-rule: nonzero; opacity: 1;" vector-effect="non-scaling-stroke"  cx="0" cy="0" r="40" />
</g>
		<g transform="matrix(0.38 0 0 0.38 12.79 -151.87)"  >
<circle style="stroke: rgb(166,94,0); stroke-width: 2; stroke-dasharray: none; stroke-linecap: butt; stroke-dashoffset: 0; stroke-linejoin: miter; stroke-miterlimit: 4; fill: none; fill-rule: nonzero; opacity: 1;" vector-effect="non-scaling-stroke"  cx="0" cy="0" r="40" />
</g>
		<g transform="matrix(0.77 0 0 0.77 -25.44 -191.13)" style=""  >
		<text xml:space="preserve" font-family="'Open Sans', sans-serif" font-size="18" font-style="normal" font-weight="normal" style="stroke: none; stroke-width: 1; stroke-dasharray: none; stroke-linecap: butt; stroke-dashoffset: 0; stroke-linejoin: miter; stroke-miterlimit: 4; fill: rgb(0,0,0); fill-rule: nonzero; opacity: 1; white-space: pre;" ><tspan x="-40" y="5.65" >swap</tspan></text>
</g>
		<g transform="matrix(0 0.26 -0.26 0 12.84 -99.91)"  >
<path style="stroke: rgb(0,0,0); stroke-width: 1; stroke-dasharray: none; stroke-linecap: butt; stroke-dashoffset: 0; stroke-linejoin: miter; stroke-miterlimit: 10; fill: none; fill-rule: evenodd; opacity: 1;" vector-effect="non-scaling-stroke"  transform=" translate(-59.83, -29.92)" d="m 0 14.960629 l 89.732285 0 l 0 -14.960629 l 29.921257 29.921259 l -29.921257 29.921259 l 0 -14.9606285 l -89.732285 0 z" stroke-linecap="round" />
</g>
		<g transform="matrix(1.28 0 0 1.28 -49.57 -66.48)" style=""  >
		<text xml:space="preserve" font-family="'Open Sans', sans-serif" font-size="18" font-style="normal" font-weight="normal" style="stroke: none; stroke-width: 1; stroke-dasharray: none; stroke-linecap: butt; stroke-dashoffset: 0; stroke-linejoin: miter; stroke-miterlimit: 4; fill: rgb(0,0,0); fill-rule: nonzero; opacity: 1; white-space: pre;" ><tspan x="-68.49" y="5.65" style="white-space: pre; ">4 ,  3 ,  1 ,  2 ,  5</tspan></text>
</g>
		<g transform="matrix(0.77 0 0 0.77 -74 -21.25)"  >
<path style="stroke: rgb(0,0,0); stroke-width: 2; stroke-dasharray: none; stroke-linecap: butt; stroke-dashoffset: 0; stroke-linejoin: miter; stroke-miterlimit: 4; fill: none; fill-rule: nonzero; opacity: 1;" vector-effect="non-scaling-stroke"  transform=" translate(-263, -266.07)" d="M 193.5 237 Q 272.5 319 332.5 234" stroke-linecap="round" />
</g>
		<g transform="matrix(0.77 0 0 0.77 -58.58 -31.57)" style=""  >
		<text xml:space="preserve" font-family="'Open Sans', sans-serif" font-size="18" font-style="normal" font-weight="normal" style="stroke: none; stroke-width: 1; stroke-dasharray: none; stroke-linecap: butt; stroke-dashoffset: 0; stroke-linejoin: miter; stroke-miterlimit: 4; fill: rgb(0,0,0); fill-rule: nonzero; opacity: 1; white-space: pre;" ><tspan x="-40" y="5.65" >swap</tspan></text>
</g>
		<g transform="matrix(1.28 0 0 1.28 -53.76 25.58)" style=""  >
		<text xml:space="preserve" font-family="'Open Sans', sans-serif" font-size="18" font-style="normal" font-weight="normal" style="stroke: none; stroke-width: 1; stroke-dasharray: none; stroke-linecap: butt; stroke-dashoffset: 0; stroke-linejoin: miter; stroke-miterlimit: 4; fill: rgb(0,0,0); fill-rule: nonzero; opacity: 1; white-space: pre;" ><tspan x="-68.49" y="5.65" style="white-space: pre; ">2 ,  3 ,  1 ,  4 ,  5</tspan></text>
</g>
		<g transform="matrix(1.28 0 0 1.28 -51.63 116.51)" style=""  >
		<text xml:space="preserve" font-family="'Open Sans', sans-serif" font-size="18" font-style="normal" font-weight="normal" style="stroke: none; stroke-width: 1; stroke-dasharray: none; stroke-linecap: butt; stroke-dashoffset: 0; stroke-linejoin: miter; stroke-miterlimit: 4; fill: rgb(0,0,0); fill-rule: nonzero; opacity: 1; white-space: pre;" ><tspan x="-68.49" y="5.65" style="white-space: pre; ">2 ,  1 ,  3 ,  4 ,  5</tspan></text>
</g>
		<g transform="matrix(1.28 0 0 1.28 -53.19 198.1)" style=""  >
		<text xml:space="preserve" font-family="'Open Sans', sans-serif" font-size="18" font-style="normal" font-weight="normal" style="stroke: none; stroke-width: 1; stroke-dasharray: none; stroke-linecap: butt; stroke-dashoffset: 0; stroke-linejoin: miter; stroke-miterlimit: 4; fill: rgb(0,0,0); fill-rule: nonzero; opacity: 1; white-space: pre;" ><tspan x="-68.49" y="5.65" style="white-space: pre; ">1 ,  2 ,  3 ,  4 ,  5</tspan></text>
</g>
		<g transform="matrix(0.38 0 0 0.38 -97.76 24.98)"  >
<circle style="stroke: rgb(166,94,0); stroke-width: 2; stroke-dasharray: none; stroke-linecap: butt; stroke-dashoffset: 0; stroke-linejoin: miter; stroke-miterlimit: 4; fill: none; fill-rule: nonzero; opacity: 1;" vector-effect="non-scaling-stroke"  cx="0" cy="0" r="40" />
</g>
		<g transform="matrix(0.38 0 0 0.38 -21.12 -67.86)"  >
<circle style="stroke: rgb(166,94,0); stroke-width: 2; stroke-dasharray: none; stroke-linecap: butt; stroke-dashoffset: 0; stroke-linejoin: miter; stroke-miterlimit: 4; fill: none; fill-rule: nonzero; opacity: 1;" vector-effect="non-scaling-stroke"  cx="0" cy="0" r="40" />
</g>
		<g transform="matrix(0.38 0 0 0.38 -129.8 -67.08)"  >
<circle style="stroke: rgb(166,94,0); stroke-width: 2; stroke-dasharray: none; stroke-linecap: butt; stroke-dashoffset: 0; stroke-linejoin: miter; stroke-miterlimit: 4; fill: none; fill-rule: nonzero; opacity: 1;" vector-effect="non-scaling-stroke"  cx="0" cy="0" r="40" />
</g>
		<g transform="matrix(0.38 0 0 0.38 -131.1 113.6)"  >
<circle style="stroke: rgb(166,94,0); stroke-width: 2; stroke-dasharray: none; stroke-linecap: butt; stroke-dashoffset: 0; stroke-linejoin: miter; stroke-miterlimit: 4; fill: none; fill-rule: nonzero; opacity: 1;" vector-effect="non-scaling-stroke"  cx="0" cy="0" r="40" />
</g>
		<g transform="matrix(0.38 0 0 0.38 -62.31 25.75)"  >
<circle style="stroke: rgb(166,94,0); stroke-width: 2; stroke-dasharray: none; stroke-linecap: butt; stroke-dashoffset: 0; stroke-linejoin: miter; stroke-miterlimit: 4; fill: none; fill-rule: nonzero; opacity: 1;" vector-effect="non-scaling-stroke"  cx="0" cy="0" r="40" />
</g>
		<g transform="matrix(0.38 0 0 0.38 -97.18 113.6)"  >
<circle style="stroke: rgb(166,94,0); stroke-width: 2; stroke-dasharray: none; stroke-linecap: butt; stroke-dashoffset: 0; stroke-linejoin: miter; stroke-miterlimit: 4; fill: none; fill-rule: nonzero; opacity: 1;" vector-effect="non-scaling-stroke"  cx="0" cy="0" r="40" />
</g>
		<g transform="matrix(0.77 0 0 0.77 -78.57 54.67)"  >
<path style="stroke: rgb(0,0,0); stroke-width: 2; stroke-dasharray: none; stroke-linecap: butt; stroke-dashoffset: 0; stroke-linejoin: miter; stroke-miterlimit: 4; fill: none; fill-rule: nonzero; opacity: 1;" vector-effect="non-scaling-stroke"  transform=" translate(-257.5, -348.13)" d="M 231.5 335 Q 263.5 370 283.5 335" stroke-linecap="round" />
</g>
		<g transform="matrix(0.77 0 0 0.77 -114.99 142.81)"  >
<path style="stroke: rgb(0,0,0); stroke-width: 2; stroke-dasharray: none; stroke-linecap: butt; stroke-dashoffset: 0; stroke-linejoin: miter; stroke-miterlimit: 4; fill: none; fill-rule: nonzero; opacity: 1;" vector-effect="non-scaling-stroke"  transform=" translate(-205.5, -417.5)" d="M 183.5 407 Q 201.5 435 227.5 407" stroke-linecap="round" />
</g>
		<g transform="matrix(0.77 0 0 0.77 -64.28 69.09)" style=""  >
		<text xml:space="preserve" font-family="'Open Sans', sans-serif" font-size="18" font-style="normal" font-weight="normal" style="stroke: none; stroke-width: 1; stroke-dasharray: none; stroke-linecap: butt; stroke-dashoffset: 0; stroke-linejoin: miter; stroke-miterlimit: 4; fill: rgb(0,0,0); fill-rule: nonzero; opacity: 1; white-space: pre;" ><tspan x="-40" y="5.65" >swap</tspan></text>
</g>
		<g transform="matrix(0.77 0 0 0.77 -100.61 157.09)" style=""  >
		<text xml:space="preserve" font-family="'Open Sans', sans-serif" font-size="18" font-style="normal" font-weight="normal" style="stroke: none; stroke-width: 1; stroke-dasharray: none; stroke-linecap: butt; stroke-dashoffset: 0; stroke-linejoin: miter; stroke-miterlimit: 4; fill: rgb(0,0,0); fill-rule: nonzero; opacity: 1; white-space: pre;" ><tspan x="-40" y="5.65" >swap</tspan></text>
</g>
		<g transform="matrix(0 0.26 -0.26 0 12.89 -29.32)"  >
<path style="stroke: rgb(0,0,0); stroke-width: 1; stroke-dasharray: none; stroke-linecap: butt; stroke-dashoffset: 0; stroke-linejoin: miter; stroke-miterlimit: 10; fill: none; fill-rule: evenodd; opacity: 1;" vector-effect="non-scaling-stroke"  transform=" translate(-59.83, -29.92)" d="m 0 14.960629 l 89.732285 0 l 0 -14.960629 l 29.921257 29.921259 l -29.921257 29.921259 l 0 -14.9606285 l -89.732285 0 z" stroke-linecap="round" />
</g>
		<g transform="matrix(0 0.26 -0.26 0 13.55 62.01)"  >
<path style="stroke: rgb(0,0,0); stroke-width: 1; stroke-dasharray: none; stroke-linecap: butt; stroke-dashoffset: 0; stroke-linejoin: miter; stroke-miterlimit: 10; fill: none; fill-rule: evenodd; opacity: 1;" vector-effect="non-scaling-stroke"  transform=" translate(-59.83, -29.92)" d="m 0 14.960629 l 89.732285 0 l 0 -14.960629 l 29.921257 29.921259 l -29.921257 29.921259 l 0 -14.9606285 l -89.732285 0 z" stroke-linecap="round" />
</g>
		<g transform="matrix(0 0.26 -0.26 0 14.89 154.68)"  >
<path style="stroke: rgb(0,0,0); stroke-width: 1; stroke-dasharray: none; stroke-linecap: butt; stroke-dashoffset: 0; stroke-linejoin: miter; stroke-miterlimit: 10; fill: none; fill-rule: evenodd; opacity: 1;" vector-effect="non-scaling-stroke"  transform=" translate(-59.83, -29.92)" d="m 0 14.960629 l 89.732285 0 l 0 -14.960629 l 29.921257 29.921259 l -29.921257 29.921259 l 0 -14.9606285 l -89.732285 0 z" stroke-linecap="round" />
</g>
		<g transform="matrix(2.02 0 0 0.41 -58.84 197.85)"  >
<polygon style="stroke: rgb(93,128,0); stroke-width: 4; stroke-dasharray: none; stroke-linecap: butt; stroke-dashoffset: 0; stroke-linejoin: miter; stroke-miterlimit: 4; fill: none; fill-rule: nonzero; opacity: 1;" vector-effect="non-scaling-stroke"  points="-50,-50 -50,50 50,50 50,-50 " />
</g>
		<g transform="matrix(0.81 0 0 0.81 121.62 204.86)" style=""  >
		<text xml:space="preserve" font-family="'Open Sans', sans-serif" font-size="18" font-style="normal" font-weight="normal" style="stroke: none; stroke-width: 1; stroke-dasharray: none; stroke-linecap: butt; stroke-dashoffset: 0; stroke-linejoin: miter; stroke-miterlimit: 4; fill: rgb(0,0,0); fill-rule: nonzero; opacity: 1; white-space: pre;" ><tspan x="-40" y="5.65" >sorted !!</tspan></text>
</g>
		<g transform="matrix(0.26 0 0 0.26 66.22 206.68)"  >
<path style="stroke: rgb(0,0,0); stroke-width: 1; stroke-dasharray: none; stroke-linecap: butt; stroke-dashoffset: 0; stroke-linejoin: miter; stroke-miterlimit: 10; fill: none; fill-rule: evenodd; opacity: 1;" vector-effect="non-scaling-stroke"  transform=" translate(-59.83, -29.92)" d="m 0 14.960629 l 89.732285 0 l 0 -14.960629 l 29.921257 29.921259 l -29.921257 29.921259 l 0 -14.9606285 l -89.732285 0 z" stroke-linecap="round" />
</g>
		<g transform="matrix(0.74 0 0 0.74 168.92 -132.44)" style=""  >
		<text xml:space="preserve" font-family="'Open Sans', sans-serif" font-size="18" font-style="normal" font-weight="normal" style="stroke: none; stroke-width: 1; stroke-dasharray: none; stroke-linecap: butt; stroke-dashoffset: 0; stroke-linejoin: miter; stroke-miterlimit: 4; fill: rgb(0,0,0); fill-rule: nonzero; opacity: 1; white-space: pre;" ><tspan x="-133" y="-17.94" >[ get the greatest element of</tspan><tspan x="-133" y="5.65" >the array &amp; put it one its</tspan><tspan x="-133" y="29.25" >correct index ]</tspan></text>
</g>
</g>
</g>
</svg>