<?xml version="1.0" encoding="UTF-8" standalone="no" ?>
<!DOCTYPE svg PUBLIC "-//W3C//DTD SVG 1.1//EN" "http://www.w3.org/Graphics/SVG/1.1/DTD/svg11.dtd">
<svg xmlns="http://www.w3.org/2000/svg" xmlns:xlink="http://www.w3.org/1999/xlink" version="1.1" width="503" height="420" viewBox="0 0 503 420" xml:space="preserve">
<desc>Created with Fabric.js 3.6.3</desc>
<defs>
</defs>
<g transform="matrix(1.49 0 0 1.49 258.65 163.07)"  >
<line style="stroke: rgb(0,0,0); stroke-width: 2; stroke-dasharray: none; stroke-linecap: butt; stroke-dashoffset: 0; stroke-linejoin: miter; stroke-miterlimit: 4; fill: rgb(0,0,0); fill-rule: nonzero; opacity: 1;" vector-effect="non-scaling-stroke"  x1="-74.99814812528523" y1="74.99814812528523" x2="74.99814812528523" y2="-74.99814812528523" />
</g>
<g transform="matrix(1.56 0 0 1.56 262.67 273.73)"  >
<line style="stroke: rgb(0,0,0); stroke-width: 3; stroke-dasharray: none; stroke-linecap: butt; stroke-dashoffset: 0; stroke-linejoin: miter; stroke-miterlimit: 4; fill: rgb(0,0,0); fill-rule: nonzero; opacity: 1;"  x1="-132.03408650799233" y1="0" x2="132.03408650799233" y2="0" />
</g>
<g transform="matrix(2.7 0 0 2.7 192.89 269.9)"  >
<line style="stroke: rgb(0,0,0); stroke-width: 2; stroke-dasharray: none; stroke-linecap: butt; stroke-dashoffset: 0; stroke-linejoin: miter; stroke-miterlimit: 4; fill: rgb(0,0,0); fill-rule: nonzero; opacity: 1;"  x1="0" y1="-5" x2="0" y2="5" />
</g>
<g transform="matrix(2.7 0 0 2.7 247.68 268.99)"  >
<line style="stroke: rgb(0,0,0); stroke-width: 2; stroke-dasharray: none; stroke-linecap: butt; stroke-dashoffset: 0; stroke-linejoin: miter; stroke-miterlimit: 4; fill: rgb(0,0,0); fill-rule: nonzero; opacity: 1;"  x1="0" y1="-5" x2="0" y2="5" />
</g>
<g transform="matrix(2.7 0 0 2.7 299.8 268.1)"  >
<line style="stroke: rgb(0,0,0); stroke-width: 2; stroke-dasharray: none; stroke-linecap: butt; stroke-dashoffset: 0; stroke-linejoin: miter; stroke-miterlimit: 4; fill: rgb(0,0,0); fill-rule: nonzero; opacity: 1;"  x1="0" y1="-5" x2="0" y2="5" />
</g>
<g transform="matrix(2.7 0 0 2.7 356.97 268.1)"  >
<line style="stroke: rgb(0,0,0); stroke-width: 2; stroke-dasharray: none; stroke-linecap: butt; stroke-dashoffset: 0; stroke-linejoin: miter; stroke-miterlimit: 4; fill: rgb(0,0,0); fill-rule: nonzero; opacity: 1;"  x1="0" y1="-5" x2="0" y2="5" />
</g>
<g transform="matrix(2.7 0 0 2.7 413.57 267.2)"  >
<line style="stroke: rgb(0,0,0); stroke-width: 2; stroke-dasharray: none; stroke-linecap: butt; stroke-dashoffset: 0; stroke-linejoin: miter; stroke-miterlimit: 4; fill: rgb(0,0,0); fill-rule: nonzero; opacity: 1;"  x1="0" y1="-5" x2="0" y2="5" />
</g>
<g transform="matrix(2 0 0 2 303.07 403.8)" style=""  >
		<text xml:space="preserve" font-family="'Open Sans', sans-serif" font-size="21" font-style="normal" font-weight="bold" style="stroke: none; stroke-width: 1; stroke-dasharray: none; stroke-linecap: butt; stroke-dashoffset: 0; stroke-linejoin: miter; stroke-miterlimit: 4; fill: rgb(0,0,0); fill-rule: nonzero; opacity: 1; white-space: pre;" ><tspan x="-64.67" y="6.6" >Worst Case</tspan></text>
</g>
<g transform="matrix(2.7 0 0 2.7 318.96 302.88)" style=""  >
		<text xml:space="preserve" font-family="'Open Sans', sans-serif" font-size="8" font-style="normal" font-weight="normal" style="stroke: none; stroke-width: 1; stroke-dasharray: none; stroke-linecap: butt; stroke-dashoffset: 0; stroke-linejoin: miter; stroke-miterlimit: 4; fill: rgb(0,0,0); fill-rule: nonzero; opacity: 1; white-space: pre;" ><tspan x="-55.15" y="2.51" style="white-space: pre; ">100    200   300    400   500   </tspan></text>
</g>
<g transform="matrix(0.49 0 0 0.16 474.1 273.7)"  >
<path style="stroke: rgb(0,0,0); stroke-width: 0; stroke-dasharray: none; stroke-linecap: butt; stroke-dashoffset: 0; stroke-linejoin: miter; stroke-miterlimit: 10; fill: rgb(0,0,0); fill-rule: evenodd; opacity: 1;"  transform=" translate(-59.83, -29.92)" d="m 0 14.960629 l 89.732285 0 l 0 -14.960629 l 29.921257 29.921259 l -29.921257 29.921259 l 0 -14.9606285 l -89.732285 0 z" stroke-linecap="round" />
</g>
<g transform="matrix(-0.49 0 0 0.16 57.41 274.62)"  >
<path style="stroke: rgb(0,0,0); stroke-width: 0; stroke-dasharray: none; stroke-linecap: butt; stroke-dashoffset: 0; stroke-linejoin: miter; stroke-miterlimit: 10; fill: rgb(0,0,0); fill-rule: evenodd; opacity: 1;"  transform=" translate(-59.83, -29.92)" d="m 0 14.960629 l 89.732285 0 l 0 -14.960629 l 29.921257 29.921259 l -29.921257 29.921259 l 0 -14.9606285 l -89.732285 0 z" stroke-linecap="round" />
</g>
<g transform="matrix(2.7 0 0 2.7 55.4 19.54)" style=""  >
		<text xml:space="preserve" font-family="'Open Sans', sans-serif" font-size="8" font-style="normal" font-weight="normal" style="stroke: none; stroke-width: 1; stroke-dasharray: none; stroke-linecap: butt; stroke-dashoffset: 0; stroke-linejoin: miter; stroke-miterlimit: 4; fill: rgb(0,0,0); fill-rule: nonzero; opacity: 1; white-space: pre;" ><tspan x="-19.68" y="2.51" >time (ms)</tspan></text>
</g>
<g transform="matrix(2.7 0 0 2.7 439.88 341.72)" style=""  >
		<text xml:space="preserve" font-family="'Open Sans', sans-serif" font-size="8" font-style="normal" font-weight="normal" style="stroke: none; stroke-width: 1; stroke-dasharray: none; stroke-linecap: butt; stroke-dashoffset: 0; stroke-linejoin: miter; stroke-miterlimit: 4; fill: rgb(0,0,0); fill-rule: nonzero; opacity: 1; white-space: pre;" ><tspan x="-11.14" y="2.51" >size</tspan></text>
</g>
<g transform="matrix(1.58 0 0 1.58 279.37 42.25)" style=""  >
		<text xml:space="preserve" font-family="'Open Sans', sans-serif" font-size="10" font-style="normal" font-weight="normal" style="stroke: none; stroke-width: 1; stroke-dasharray: none; stroke-linecap: butt; stroke-dashoffset: 0; stroke-linejoin: miter; stroke-miterlimit: 4; fill: rgb(0,0,0); fill-rule: nonzero; opacity: 1; white-space: pre;" ><tspan x="-62.18" y="3.14" style="white-space: pre; ">Linear  time complexity</tspan></text>
</g>
<g transform="matrix(1.49 0 0 1.49 223.9 198.57)"  >
<path style="stroke: rgb(0,0,0); stroke-width: 3; stroke-dasharray: 1 10; stroke-linecap: round; stroke-dashoffset: 0; stroke-linejoin: miter; stroke-miterlimit: 4; fill: none; fill-rule: nonzero; opacity: 1;" vector-effect="non-scaling-stroke"  transform=" translate(-160.67, -244.5)" d="M 110 196 L 211.33388157746427 196 L 211.33388157746427 293.00915583641574" stroke-linecap="round" />
</g>
<g transform="matrix(1.58 0 0 1.58 299.6 15.65)" style=""  >
		<text xml:space="preserve" font-family="'Open Sans', sans-serif" font-size="10" font-style="normal" font-weight="bold" style="stroke: none; stroke-width: 1; stroke-dasharray: none; stroke-linecap: butt; stroke-dashoffset: 0; stroke-linejoin: miter; stroke-miterlimit: 4; fill: rgb(0,0,0); fill-rule: nonzero; opacity: 1; white-space: pre;" ><tspan x="-28.99" y="3.14" >O(n)</tspan></text>
</g>
<g transform="matrix(0 -1.03 1.03 0 145.72 167.91)"  >
<line style="stroke: rgb(0,0,0); stroke-width: 3; stroke-dasharray: none; stroke-linecap: butt; stroke-dashoffset: 0; stroke-linejoin: miter; stroke-miterlimit: 4; fill: rgb(0,0,0); fill-rule: nonzero; opacity: 1;"  x1="-132.03408650799233" y1="0" x2="132.03408650799233" y2="0" />
</g>
<g transform="matrix(0 -2.7 2.7 0 141.09 231.7)"  >
<line style="stroke: rgb(0,0,0); stroke-width: 2; stroke-dasharray: none; stroke-linecap: butt; stroke-dashoffset: 0; stroke-linejoin: miter; stroke-miterlimit: 4; fill: rgb(0,0,0); fill-rule: nonzero; opacity: 1;"  x1="0" y1="-5" x2="0" y2="5" />
</g>
<g transform="matrix(0 -2.7 2.7 0 140.19 176.89)"  >
<line style="stroke: rgb(0,0,0); stroke-width: 2; stroke-dasharray: none; stroke-linecap: butt; stroke-dashoffset: 0; stroke-linejoin: miter; stroke-miterlimit: 4; fill: rgb(0,0,0); fill-rule: nonzero; opacity: 1;"  x1="0" y1="-5" x2="0" y2="5" />
</g>
<g transform="matrix(0 -2.7 2.7 0 139.28 126.28)"  >
<line style="stroke: rgb(0,0,0); stroke-width: 2; stroke-dasharray: none; stroke-linecap: butt; stroke-dashoffset: 0; stroke-linejoin: miter; stroke-miterlimit: 4; fill: rgb(0,0,0); fill-rule: nonzero; opacity: 1;"  x1="0" y1="-5" x2="0" y2="5" />
</g>
<g transform="matrix(0 -2.7 2.7 0 139.28 69.1)"  >
<line style="stroke: rgb(0,0,0); stroke-width: 2; stroke-dasharray: none; stroke-linecap: butt; stroke-dashoffset: 0; stroke-linejoin: miter; stroke-miterlimit: 4; fill: rgb(0,0,0); fill-rule: nonzero; opacity: 1;"  x1="0" y1="-5" x2="0" y2="5" />
</g>
<g transform="matrix(0 -0.49 0.16 0 146.38 29.4)"  >
<path style="stroke: rgb(0,0,0); stroke-width: 0; stroke-dasharray: none; stroke-linecap: butt; stroke-dashoffset: 0; stroke-linejoin: miter; stroke-miterlimit: 10; fill: rgb(0,0,0); fill-rule: evenodd; opacity: 1;"  transform=" translate(-59.83, -29.92)" d="m 0 14.960629 l 89.732285 0 l 0 -14.960629 l 29.921257 29.921259 l -29.921257 29.921259 l 0 -14.9606285 l -89.732285 0 z" stroke-linecap="round" />
</g>
<g transform="matrix(0 0.49 0.16 0 145.81 318.01)"  >
<path style="stroke: rgb(0,0,0); stroke-width: 0; stroke-dasharray: none; stroke-linecap: butt; stroke-dashoffset: 0; stroke-linejoin: miter; stroke-miterlimit: 10; fill: rgb(0,0,0); fill-rule: evenodd; opacity: 1;"  transform=" translate(-59.83, -29.92)" d="m 0 14.960629 l 89.732285 0 l 0 -14.960629 l 29.921257 29.921259 l -29.921257 29.921259 l 0 -14.9606285 l -89.732285 0 z" stroke-linecap="round" />
</g>
<g transform="matrix(1.49 0 0 1.49 133.04 233.68)" style=""  >
		<text xml:space="preserve" font-family="'Open Sans', sans-serif" font-size="14" font-style="normal" font-weight="normal" style="stroke: none; stroke-width: 1; stroke-dasharray: none; stroke-linecap: butt; stroke-dashoffset: 0; stroke-linejoin: miter; stroke-miterlimit: 4; fill: rgb(0,0,0); fill-rule: nonzero; opacity: 1; white-space: pre;" ><tspan x="-40" y="4.4" >100</tspan></text>
</g>
<g transform="matrix(1.49 0 0 1.49 131.55 178.57)" style=""  >
		<text xml:space="preserve" font-family="'Open Sans', sans-serif" font-size="14" font-style="normal" font-weight="normal" style="stroke: none; stroke-width: 1; stroke-dasharray: none; stroke-linecap: butt; stroke-dashoffset: 0; stroke-linejoin: miter; stroke-miterlimit: 4; fill: rgb(0,0,0); fill-rule: nonzero; opacity: 1; white-space: pre;" ><tspan x="-40" y="4.4" >200</tspan></text>
</g>
<g transform="matrix(1.49 0 0 1.49 94.45 126.44)" style=""  >
		<text xml:space="preserve" font-family="'Open Sans', sans-serif" font-size="14" font-style="normal" font-weight="normal" style="stroke: none; stroke-width: 1; stroke-dasharray: none; stroke-linecap: butt; stroke-dashoffset: 0; stroke-linejoin: miter; stroke-miterlimit: 4; fill: rgb(0,0,0); fill-rule: nonzero; opacity: 1; white-space: pre;" ><tspan x="-16.09" y="4.4" >300</tspan></text>
</g>
<g transform="matrix(1.49 0 0 1.49 130.07 71.33)" style=""  >
		<text xml:space="preserve" font-family="'Open Sans', sans-serif" font-size="14" font-style="normal" font-weight="normal" style="stroke: none; stroke-width: 1; stroke-dasharray: none; stroke-linecap: butt; stroke-dashoffset: 0; stroke-linejoin: miter; stroke-miterlimit: 4; fill: rgb(0,0,0); fill-rule: nonzero; opacity: 1; white-space: pre;" ><tspan x="-40" y="4.4" >400</tspan></text>
</g>
<g transform="matrix(1.49 0 0 1.49 170.04 232.57)"  >
<line style="stroke: rgb(0,0,0); stroke-width: 2; stroke-dasharray: 1 10; stroke-linecap: round; stroke-dashoffset: 0; stroke-linejoin: miter; stroke-miterlimit: 4; fill: rgb(0,0,0); fill-rule: nonzero; opacity: 1;" vector-effect="non-scaling-stroke"  x1="-15.508062419270821" y1="0" x2="15.508062419270821" y2="0" />
</g>
<g transform="matrix(1.49 0 0 1.49 193.12 248.95)"  >
<line style="stroke: rgb(0,0,0); stroke-width: 2; stroke-dasharray: 1 10; stroke-linecap: round; stroke-dashoffset: 0; stroke-linejoin: miter; stroke-miterlimit: 4; fill: rgb(0,0,0); fill-rule: nonzero; opacity: 1;" vector-effect="non-scaling-stroke"  x1="0" y1="-10" x2="0" y2="10" />
</g>
<g transform="matrix(1.49 0 0 1.49 197.58 176.97)"  >
<line style="stroke: rgb(0,0,0); stroke-width: 2; stroke-dasharray: 1 10; stroke-linecap: round; stroke-dashoffset: 0; stroke-linejoin: miter; stroke-miterlimit: 4; fill: rgb(0,0,0); fill-rule: nonzero; opacity: 1;" vector-effect="non-scaling-stroke"  x1="-34.333737861694516" y1="0" x2="34.333737861694516" y2="0" />
</g>
<g transform="matrix(1.49 0 0 1.49 248.22 226.9)"  >
<line style="stroke: rgb(0,0,0); stroke-width: 2; stroke-dasharray: 1 10; stroke-linecap: round; stroke-dashoffset: 0; stroke-linejoin: miter; stroke-miterlimit: 4; fill: rgb(0,0,0); fill-rule: nonzero; opacity: 1;" vector-effect="non-scaling-stroke"  x1="0" y1="-33.526523496744744" x2="0" y2="33.526523496744744" />
</g>
</svg>